<svg width="45" height="24" viewBox="0 0 45 24" fill="none" xmlns="http://www.w3.org/2000/svg">
<path d="M27.9016 0.306663C28.2615 0.27109 29.0738 0.149125 30.0095 0.103388C30.9401 0.0271595 31.994 0.0169957 32.8115 0.00175008C36.6006 -0.038905 40.4411 0.626821 43.8755 2.2022C44.405 2.46138 45.3408 2.82219 44.8729 3.87414C44.3845 4.97183 43.5567 5.40379 42.7136 5.04297C40.6416 4.21463 38.4463 3.44726 36.179 3.41169C32.8938 3.34563 29.6085 3.36087 26.4158 4.0825C24.9865 4.40774 23.5881 4.82954 22.2153 5.32248C20.8478 5.83067 19.5265 6.45574 18.2617 7.17736C15.9019 8.57996 13.866 10.4145 11.9483 12.3101C10.2825 13.9312 8.57043 15.5777 7.23371 17.5342C7.07947 17.7629 6.95607 18.0475 6.83782 18.3372C6.72985 18.6319 6.6219 18.9368 6.46766 19.196C6.20032 19.6178 5.8456 20.3699 5.53198 20.7765C5.39317 20.9493 5.26464 21.1373 5.21837 21.3456C5.02814 22.301 4.53459 22.3976 3.42408 21.615C3.18244 21.4422 2.79169 21.3863 2.70429 21.0763C2.69915 21.0611 2.69399 21.0357 2.68885 21.0255C2.46263 20.5224 2.51917 20.1108 2.66826 19.7398C2.83278 19.3739 3.08985 19.0537 3.25437 18.6878C4.94071 15.1102 7.35708 11.8883 10.2413 9.14913C12.0202 7.47211 14.0202 6.05427 16.0561 4.68724C16.6062 4.30102 17.1306 3.84365 17.7836 3.62005L17.7733 3.62513C18.3902 3.25924 19.0175 2.90859 19.6756 2.61384C22.1845 1.57205 24.9197 0.713213 27.516 0.418464C27.624 0.393055 27.7525 0.32699 27.9016 0.306663Z" fill="white"/>
<path d="M6.40084 19.4149C6.6836 19.3183 7.69643 19.0134 8.32366 18.7695C9.78378 18.2054 11.2594 17.6769 12.8531 17.4888C13.1051 17.4583 13.4958 17.3262 13.8865 18.4087C14.2927 19.5368 14.2721 20.2839 13.8608 20.3855C12.8531 20.6345 11.7837 20.726 10.8891 21.2698C9.58327 22.0625 8.11802 22.4183 6.72988 22.9874C6.18491 23.211 5.63482 23.4092 5.08471 23.6074L4.75051 23.7243C4.62198 23.765 4.49859 23.8056 4.37006 23.8412C4.113 23.9123 3.85594 23.9632 3.60402 23.9835C3.09504 24.0343 2.59119 23.9682 2.12333 23.7802C1.85599 23.6582 1.58866 23.521 1.36758 23.3228C0.951142 22.9773 0.63748 22.525 0.421547 22.0066C0.205614 21.4984 0.102814 20.8734 0.0616837 20.3194C0.0411187 20.1263 0.0359422 19.9078 0.0256597 19.7554L0.00513736 19.2827C-0.00514516 18.9677 1.11591e-05 18.6577 0.0205762 18.3426C0.0874126 17.2652 0.442104 16.2031 0.606625 15.1308C0.647755 14.8768 0.447246 14.5617 0.478093 14.2822C0.503799 14.0535 0.534687 13.6673 0.647795 13.4487C0.694066 13.3522 0.755769 13.2556 0.71978 13.154C0.544977 12.7017 0.971669 12.6052 2.29297 12.8237C2.58088 12.8694 2.96651 12.8542 3.16188 12.971C3.17216 12.9761 3.18756 12.9863 3.19784 12.9914C3.98445 13.3573 3.59373 13.6723 3.59373 14.0078C3.59887 15.6594 3.52176 17.3059 3.48063 18.9575L3.44976 19.7147C3.43947 19.9739 3.42404 20.2127 3.43432 20.355C3.4446 20.4465 3.4909 20.5532 3.59373 20.5481C3.65542 20.5532 3.77369 20.4058 3.74284 20.4871L3.7377 20.4973C3.78397 20.4617 3.80968 20.3753 3.80968 20.3753H3.81477L3.81991 20.3703C3.83534 20.3652 3.78392 20.3804 3.88161 20.3449L4.67338 20.0349C5.20293 19.8316 5.73251 19.6436 6.25178 19.5114C6.30834 19.5013 6.34428 19.4352 6.40084 19.4149Z" fill="white"/>
</svg>
