<svg width="27" height="21" viewBox="0 0 27 21" fill="none" xmlns="http://www.w3.org/2000/svg">
<path d="M6.51965 16.5202C6.80767 16.4259 7.83929 16.128 8.47817 15.8896C9.96539 15.3385 11.4684 14.8221 13.0917 14.6384C13.3483 14.6086 13.7463 14.4795 14.1443 15.5371C14.558 16.6394 14.537 17.3692 14.1181 17.4685C13.0917 17.7118 12.0025 17.8012 11.0913 18.3325C9.76116 19.107 8.26872 19.4546 6.85481 20.0107C6.29972 20.2292 5.73942 20.4228 5.17909 20.6164L4.83869 20.7306C4.70778 20.7704 4.5821 20.8101 4.45118 20.8448C4.18935 20.9143 3.92752 20.964 3.67092 20.9839C3.15249 21.0335 2.63929 20.969 2.16275 20.7853C1.89044 20.6661 1.61815 20.532 1.39297 20.3384C0.968798 20.0008 0.649313 19.5589 0.429372 19.0524C0.209431 18.5559 0.104722 17.9452 0.0628287 17.404C0.0418819 17.2153 0.0366094 17.0018 0.026136 16.8529L0.00523272 16.3911C-0.00524067 16.0833 1.13674e-05 15.7804 0.0209582 15.4726C0.0890352 14.42 0.450311 13.3822 0.617885 12.3346C0.659779 12.0864 0.455548 11.7785 0.486968 11.5054C0.513151 11.282 0.544612 10.9046 0.65982 10.6911C0.70695 10.5968 0.769798 10.5025 0.733141 10.4032C0.555094 9.96128 0.989706 9.86694 2.33554 10.0804C2.62879 10.1251 3.02158 10.1102 3.22057 10.2244C3.23105 10.2294 3.24673 10.2393 3.2572 10.2443C4.05842 10.6018 3.66044 10.9096 3.66044 11.2373C3.66567 12.851 3.58714 14.4597 3.54524 16.0733L3.51379 16.8132C3.50332 17.0664 3.4876 17.2997 3.49807 17.4388C3.50854 17.5281 3.5557 17.6324 3.66044 17.6274C3.72328 17.6324 3.84374 17.4884 3.81232 17.5679L3.80708 17.5778C3.85421 17.543 3.8804 17.4586 3.8804 17.4586H3.88558L3.89082 17.4537C3.90653 17.4487 3.85416 17.4636 3.95366 17.4288L4.76013 17.126C5.29951 16.9273 5.83893 16.7436 6.36783 16.6145C6.42544 16.6096 6.46205 16.5401 6.51965 16.5202Z" fill="white"/>
<path d="M15.9822 2.73228C16.375 2.50884 17.8779 1.90806 18.8257 1.51085C21.0356 0.607201 23.4183 -0.00351059 25.8377 0.00145454C26.2147 0.00145454 26.8431 -0.0829518 26.9688 1.0342C27.0997 2.19604 26.8117 2.93088 26.2356 2.9706C25.8848 3.00039 25.5287 3.00039 25.1726 3.03515L24.1096 3.15928C23.3974 3.23375 22.7166 3.44725 22.0725 3.73027C20.2135 4.61902 18.2863 5.26946 16.5215 6.29724C14.961 7.23068 13.4267 8.21378 12.0599 9.39051C10.8136 10.5375 9.78197 11.8631 8.71368 13.1193C8.2319 13.6506 7.76581 14.1918 7.24214 14.6982C6.78131 15.2444 6.26286 15.7757 5.8544 16.3665C5.66588 16.6495 5.6554 17.1014 5.45641 17.4092C5.27836 17.6624 5.06893 18.1192 4.83851 18.3476C4.74425 18.4469 4.63426 18.5462 4.61855 18.6803C4.55047 19.281 4.08441 19.2711 2.92186 18.5959C2.66527 18.4469 2.28301 18.3526 2.16257 18.1391C2.15733 18.1291 2.14684 18.1142 2.1416 18.1043C1.59175 17.3695 2.15732 17.0616 2.35108 16.6148C3.38271 14.4202 4.77564 12.3845 6.37807 10.5275C6.6242 10.2445 6.86512 9.95157 7.13219 9.68345L7.93342 8.8791C8.44661 8.32301 9.02262 7.83146 9.53581 7.26544C9.81336 6.95263 10.0333 6.57528 10.4418 6.39157L10.4365 6.39654C10.7612 6.09863 11.0649 5.761 11.421 5.49785C12.814 4.54951 14.2541 3.50683 15.778 2.88123C15.8461 2.86137 15.8984 2.77696 15.9822 2.73228Z" fill="white"/>
</svg>
