<svg width="34" height="34" viewBox="0 0 34 34" fill="none" xmlns="http://www.w3.org/2000/svg">
<g clip-path="url(#clip0_144_2)">
<path d="M29.2694 27.8985C29.2694 25.6544 27.471 23.8351 25.2526 23.8351C23.0342 23.8351 21.2358 25.6544 21.2358 27.8985C21.2358 30.1427 23.0342 31.9619 25.2526 31.9619C27.471 31.9619 29.2694 30.1427 29.2694 27.8985Z" fill="#6FFF90"/>
<path d="M18.5674 0.499999L32.4326 0.499999C33.2975 0.499999 34 1.21066 34 2.08562L34 12.5526L33.9943 12.5526C34 12.6386 34 12.7246 34 12.8105C34 16.6791 30.8991 19.8216 27.0693 19.8216C27.0353 19.8216 26.9976 19.8216 26.9655 19.8159C26.9655 19.8159 26.9655 19.8216 26.9711 19.8216L21.8307 19.8216C20.2293 19.8216 18.7544 20.3718 17.5835 21.2965C17.2096 21.5907 17.0019 22.053 17.0019 22.5325L17.0019 31.9144C17.0019 32.7893 16.2994 33.5 15.4345 33.5L1.56743 33.5C0.702511 33.5 -3.10641e-08 32.7893 -6.93097e-08 31.9144L-5.2692e-07 21.4455L0.00566488 21.4455C-5.30678e-07 21.3595 -5.34436e-07 21.2735 -5.38194e-07 21.1876C-7.07292e-07 17.319 3.10087 14.1765 6.93068 14.1765C6.96467 14.1765 7.00244 14.1765 7.03455 14.1822C7.03455 14.1822 7.03455 14.1765 7.03077 14.1765L12.1712 14.1765C13.7726 14.1765 15.2475 13.6263 16.4184 12.7016C16.7923 12.4074 17 11.9451 17 11.4656L17 2.08371C17 1.20875 17.7006 0.499999 18.5674 0.499999Z" fill="#6FFF90"/>
</g>
<defs>
<clipPath id="clip0_144_2">
<rect width="33" height="34" fill="white" transform="translate(0 33.5) rotate(-90)"/>
</clipPath>
</defs>
</svg>
